<svg width="32" height="32" viewBox="0 0 32 32" fill="none" xmlns="http://www.w3.org/2000/svg">
<path d="M3.83998 0.0400391C1.75034 0.0400391 0.039978 1.7504 0.039978 3.84004V28.16C0.039978 30.2497 1.75034 31.96 3.83998 31.96H16.6323C16.7144 31.9736 16.7981 31.9736 16.8802 31.96H21.1923C21.2744 31.9736 21.3581 31.9736 21.4402 31.96H28.16C30.2496 31.96 31.96 30.2497 31.96 28.16V3.84004C31.96 1.7504 30.2496 0.0400391 28.16 0.0400391H3.83998ZM3.83998 1.56004H28.16C29.428 1.56004 30.44 2.57199 30.44 3.84004V28.16C30.44 29.4281 29.428 30.44 28.16 30.44H22.08V19.8H24.9834L26.0477 14.48H22.08V12.96C22.08 12.5363 22.1203 12.5032 22.2626 12.4108C22.4048 12.3184 22.8444 12.2 23.6 12.2H25.88V7.92059L25.4465 7.71425C25.4465 7.71425 23.7008 6.88003 21.32 6.88003C19.61 6.88003 18.2052 7.56133 17.3062 8.68503C16.4073 9.80873 16 11.3134 16 12.96V14.48H13.72V19.8H16V30.44H3.83998C2.57193 30.44 1.55998 29.4281 1.55998 28.16V3.84003C1.55998 2.57199 2.57193 1.56004 3.83998 1.56004ZM21.32 8.40004C22.9001 8.40004 23.8944 8.74847 24.36 8.93293V10.68H23.6C22.7254 10.68 22.0245 10.7524 21.4343 11.1357C20.8441 11.5191 20.56 12.2468 20.56 12.96V16H24.1922L23.7365 18.28H20.56V30.44H17.52V18.28H15.24V16H17.52V12.96C17.52 11.5667 17.8727 10.4113 18.4937 9.63504C19.1148 8.85874 19.99 8.40004 21.32 8.40004Z" fill="#C2EFD4"/>
</svg>
