<svg width="35" height="30" viewBox="0 0 35 30" fill="none" xmlns="http://www.w3.org/2000/svg">
<path d="M23.9531 0.828125C19.7668 0.828125 16.3625 4.23242 16.3625 8.41875C16.3625 8.67032 16.4254 8.91641 16.45 9.1625C11.2739 8.66758 6.69651 6.17383 3.58752 2.35938C3.4426 2.17617 3.21838 2.07774 2.98323 2.09414C2.7508 2.11055 2.54299 2.24453 2.42815 2.44688C1.77463 3.5707 1.40002 4.86407 1.40002 6.25313C1.40002 7.93476 2.00159 9.47422 2.93127 10.7375C2.7508 10.6582 2.55393 10.6145 2.3844 10.5188C2.16838 10.4039 1.90861 10.4094 1.69807 10.5352C1.48752 10.6609 1.359 10.8879 1.35627 11.1313V11.2188C1.35627 13.7973 2.69065 16.0367 4.6594 17.4094C4.63752 17.4066 4.61565 17.4148 4.59377 17.4094C4.35315 17.3684 4.10978 17.4531 3.94846 17.6363C3.78713 17.8195 3.73518 18.0738 3.80628 18.3063C4.58831 20.7371 6.5844 22.5938 9.05628 23.2719C7.08753 24.4422 4.80432 25.1313 2.34065 25.1313C1.80745 25.1313 1.29612 25.1039 0.787528 25.0438C0.459403 25 0.144949 25.1914 0.0355735 25.5031C-0.0765385 25.8148 0.0465145 26.1621 0.328153 26.3344C3.48636 28.3605 7.23519 29.55 11.2657 29.55C17.7981 29.55 22.9223 26.8211 26.3594 22.9219C29.7965 19.0227 31.5875 13.9586 31.5875 9.22813C31.5875 9.02851 31.5711 8.83438 31.5657 8.6375C32.8481 7.65586 33.9938 6.50469 34.8907 5.15938C35.0684 4.89961 35.0493 4.55234 34.8442 4.31172C34.6418 4.07109 34.3 3.99726 34.0157 4.13125C33.6547 4.29258 33.2336 4.30899 32.8563 4.4375C33.3539 3.77305 33.7805 3.05664 34.0375 2.25C34.125 1.97383 34.0293 1.67032 33.8024 1.48984C33.5754 1.31211 33.2582 1.29023 33.0094 1.44063C31.8145 2.14883 30.491 2.64649 29.0938 2.95C27.7375 1.68125 25.952 0.828125 23.9531 0.828125ZM23.9531 2.22813C25.7387 2.22813 27.352 2.99101 28.4813 4.19688C28.6508 4.37188 28.8996 4.4457 29.1375 4.39375C30.0508 4.21328 30.9176 3.94805 31.7625 3.60625C31.2758 4.2625 30.6742 4.82305 29.9688 5.24688C29.6489 5.40274 29.4985 5.77187 29.616 6.1082C29.7309 6.4418 30.0809 6.63594 30.4282 6.55938C31.1282 6.47461 31.7516 6.19024 32.4188 6.0125C31.8199 6.66055 31.1637 7.2457 30.45 7.7625C30.2559 7.90469 30.1492 8.13438 30.1657 8.375C30.1766 8.65938 30.1875 8.94101 30.1875 9.22813C30.1875 13.6031 28.5086 18.3527 25.3094 21.9813C22.1102 25.6098 17.4125 28.15 11.2656 28.15C8.47385 28.15 5.83791 27.532 3.45627 26.4438C6.4094 26.2168 9.13284 25.1723 11.3313 23.4469C11.561 23.2637 11.6512 22.9574 11.5582 22.6785C11.4653 22.3996 11.2082 22.2082 10.9156 22.2C8.60784 22.159 6.67463 20.8164 5.64377 18.9188C5.68205 18.9188 5.71486 18.9188 5.75315 18.9188C6.44494 18.9188 7.12853 18.8313 7.76565 18.6563C8.0719 18.566 8.28244 18.2816 8.27151 17.9617C8.26057 17.6418 8.03362 17.3684 7.7219 17.3C5.23088 16.7969 3.3633 14.768 2.93127 12.2469C3.63674 12.4902 4.35861 12.6816 5.14065 12.7063C5.46057 12.7254 5.75041 12.5258 5.84885 12.2223C5.94729 11.9188 5.82698 11.5852 5.55627 11.4156C3.89377 10.3027 2.80002 8.40782 2.80002 6.25313C2.80002 5.45469 3.00784 4.72188 3.28127 4.02188C6.78127 7.86367 11.6813 10.4148 17.2156 10.6938C17.4344 10.7047 17.6477 10.6145 17.7899 10.4477C17.9321 10.2781 17.9867 10.0539 17.9375 9.84063C17.8309 9.38672 17.7625 8.90547 17.7625 8.41875C17.7625 4.98984 20.5242 2.22813 23.9531 2.22813Z" fill="#C2EFD4"/>
</svg>
